<svg width="154" height="75" viewBox="0 0 154 75" fill="none" xmlns="http://www.w3.org/2000/svg">
<path d="M61.6687 19.7188C57.6016 21.5078 53.7 23.6844 47.5656 22.6641C55.5891 13.4922 64.1234 16.5235 67.9688 19.4985C65.2375 18.211 63.4625 18.9328 61.6703 19.7203C61.9203 19.2 61.2516 18.8328 59.7172 18.611M45.1031 22.775C41.6719 22.4938 36.1562 22.6532 32.7844 25.775C26.5234 31.5688 20.5406 32.0016 14.6109 30.161C25.3859 16.1453 40.8719 16.111 45.1031 22.775ZM56.1406 32.7282C53.9484 36.4594 52.3 41.186 43.3203 40.9469C38.3953 38.2485 33.7859 34.1328 23.6984 38.3922C16.8234 41.2938 12.4641 39.6203 7.03125 37.3922C13.2781 37.225 19.6984 38.4328 25.7734 33.9703C35.2 27.0453 44.6859 22.8672 56.1422 32.7266L56.1406 32.7282ZM43.75 45.975C44.2925 45.9738 44.83 46.0794 45.3317 46.2859C45.8334 46.4924 46.2895 46.7957 46.674 47.1784C47.0585 47.5612 47.3638 48.0159 47.5726 48.5167C47.7813 49.0174 47.8894 49.5544 47.8906 50.0969V54.3344C47.8919 54.8769 47.7862 55.4144 47.5797 55.9161C47.3733 56.4178 47.07 56.8739 46.6872 57.2584C46.3045 57.6429 45.8498 57.9482 45.349 58.157C44.8482 58.3657 44.3113 58.4738 43.7687 58.475H43.75C43.2075 58.4763 42.67 58.3706 42.1683 58.1641C41.6666 57.9577 41.2105 57.6544 40.826 57.2716C40.4415 56.8889 40.1362 56.4342 39.9274 55.9334C39.7187 55.4326 39.6106 54.8957 39.6094 54.3532V50.1157C39.6081 49.5731 39.7138 49.0357 39.9203 48.534C40.1267 48.0323 40.43 47.5762 40.8128 47.1917C41.1955 46.8072 41.6502 46.5018 42.151 46.2931C42.6518 46.0843 43.1887 45.9763 43.7313 45.975H43.75ZM14.8563 57.1063C15.6219 58.1047 16.5828 58.475 17.9203 58.475H19.7703C20.5972 58.475 21.3902 58.1467 21.975 57.5621C22.5599 56.9776 22.8886 56.1847 22.8891 55.3578V55.3422C22.8886 54.5153 22.5599 53.7225 21.975 53.1379C21.3902 52.5534 20.5972 52.225 19.7703 52.225H17.7297C16.9022 52.2242 16.1089 51.8952 15.5237 51.3103C14.9384 50.7253 14.6091 49.9322 14.6078 49.1047C14.6078 47.3766 16.0094 45.975 17.7359 45.975H19.5766C20.9141 45.975 21.875 46.3469 22.6422 47.3453M27.1078 52.2016H35.3891H27.1078ZM35.3891 45.975V58.475V45.975ZM27.1078 45.975V58.475V45.975ZM52.1078 58.475V45.975H56.2016C58.5141 45.975 60.3891 47.8547 60.3891 50.1735C60.3891 52.4922 58.5141 54.3719 56.2016 54.3719H52.1078" fill="#E73879"/>
<path d="M61.6687 19.7188C57.6016 21.5078 53.7 23.6844 47.5656 22.6641C55.5891 13.4922 64.1234 16.5235 67.9688 19.4985C65.2375 18.211 63.4625 18.9328 61.6703 19.7203C61.9203 19.2 61.2516 18.8328 59.7172 18.611M14.8563 57.1063C15.6219 58.1047 16.5828 58.475 17.9203 58.475H19.7703C20.5972 58.475 21.3902 58.1467 21.975 57.5621C22.5599 56.9776 22.8886 56.1847 22.8891 55.3578V55.3422C22.8886 54.5153 22.5599 53.7225 21.975 53.1379C21.3902 52.5534 20.5972 52.225 19.7703 52.225H17.7297C16.9022 52.2242 16.1089 51.8952 15.5237 51.3103C14.9384 50.7253 14.6091 49.9322 14.6078 49.1047C14.6078 47.3766 16.0094 45.975 17.7359 45.975H19.5766C20.9141 45.975 21.875 46.3469 22.6422 47.3453M27.1078 52.2016H35.3891M35.3891 45.975V58.475M27.1078 45.975V58.475M52.1078 58.475V45.975H56.2016C58.5141 45.975 60.3891 47.8547 60.3891 50.1735C60.3891 52.4922 58.5141 54.3719 56.2016 54.3719H52.1078M45.1031 22.775C41.6719 22.4938 36.1563 22.6532 32.7844 25.775C26.5234 31.5688 20.5406 32.0016 14.6109 30.161C25.3859 16.1453 40.8719 16.111 45.1031 22.775ZM56.1406 32.7282C53.9484 36.4594 52.3 41.186 43.3203 40.9469C38.3953 38.2485 33.7859 34.1328 23.6984 38.3922C16.8234 41.2938 12.4641 39.6203 7.03125 37.3922C13.2781 37.225 19.6984 38.4328 25.7734 33.9703C35.2 27.0453 44.6859 22.8672 56.1422 32.7266L56.1406 32.7282ZM43.75 45.975C44.2925 45.9738 44.83 46.0794 45.3317 46.2859C45.8334 46.4924 46.2895 46.7957 46.674 47.1784C47.0585 47.5612 47.3638 48.0159 47.5726 48.5167C47.7813 49.0174 47.8894 49.5544 47.8906 50.0969V54.3344C47.8919 54.8769 47.7862 55.4144 47.5797 55.9161C47.3733 56.4178 47.07 56.8739 46.6872 57.2584C46.3045 57.6429 45.8498 57.9482 45.349 58.157C44.8482 58.3657 44.3113 58.4738 43.7687 58.475H43.75C43.2075 58.4763 42.67 58.3706 42.1683 58.1641C41.6666 57.9577 41.2105 57.6544 40.826 57.2716C40.4415 56.8889 40.1362 56.4342 39.9274 55.9334C39.7187 55.4326 39.6106 54.8957 39.6094 54.3532V50.1157C39.6081 49.5731 39.7138 49.0357 39.9203 48.534C40.1267 48.0323 40.43 47.5762 40.8128 47.1917C41.1955 46.8072 41.6502 46.5018 42.151 46.2931C42.6518 46.0843 43.1887 45.9763 43.7313 45.975H43.75Z" stroke="#373A40" stroke-width="4" stroke-linecap="round" stroke-linejoin="round"/>
<mask id="path-3-outside-1_2004_20" maskUnits="userSpaceOnUse" x="85" y="27" width="68" height="24" fill="black">
<rect fill="white" x="85" y="27" width="68" height="24"/>
<path d="M102.918 41.0547C102.918 41.6562 102.84 42.1992 102.684 42.6836C102.535 43.1602 102.336 43.582 102.086 43.9492C101.836 44.3164 101.543 44.6289 101.207 44.8867C100.871 45.1445 100.523 45.3555 100.164 45.5195C99.8047 45.6836 99.4375 45.8047 99.0625 45.8828C98.6953 45.9609 98.3477 46 98.0195 46H86.2656V42.9531H98.0195C98.6055 42.9531 99.0586 42.7812 99.3789 42.4375C99.707 42.0938 99.8711 41.6328 99.8711 41.0547C99.8711 40.7734 99.8281 40.5156 99.7422 40.2812C99.6562 40.0469 99.5312 39.8438 99.3672 39.6719C99.2109 39.5 99.0156 39.3672 98.7812 39.2734C98.5547 39.1797 98.3008 39.1328 98.0195 39.1328H91.0117C90.5195 39.1328 89.9883 39.0469 89.418 38.875C88.8477 38.6953 88.3164 38.4102 87.8242 38.0195C87.3398 37.6289 86.9336 37.1172 86.6055 36.4844C86.2852 35.8516 86.125 35.0781 86.125 34.1641C86.125 33.25 86.2852 32.4805 86.6055 31.8555C86.9336 31.2227 87.3398 30.7109 87.8242 30.3203C88.3164 29.9219 88.8477 29.6367 89.418 29.4648C89.9883 29.2852 90.5195 29.1953 91.0117 29.1953H101.383V32.2422H91.0117C90.4336 32.2422 89.9805 32.418 89.6523 32.7695C89.332 33.1211 89.1719 33.5859 89.1719 34.1641C89.1719 34.75 89.332 35.2148 89.6523 35.5586C89.9805 35.8945 90.4336 36.0625 91.0117 36.0625H98.0195H98.043C98.3711 36.0703 98.7188 36.1172 99.0859 36.2031C99.4531 36.2812 99.8164 36.4062 100.176 36.5781C100.543 36.75 100.891 36.9688 101.219 37.2344C101.547 37.4922 101.836 37.8047 102.086 38.1719C102.344 38.5391 102.547 38.9609 102.695 39.4375C102.844 39.9141 102.918 40.4531 102.918 41.0547ZM119.195 46H116.148V37.5977C116.148 37.1992 116.047 36.8984 115.844 36.6953C115.641 36.4844 115.336 36.3789 114.93 36.3789H109.434V33.332H114.93C115.219 33.332 115.523 33.3672 115.844 33.4375C116.164 33.5 116.48 33.6016 116.793 33.7422C117.113 33.8828 117.418 34.0664 117.707 34.293C117.996 34.5117 118.25 34.7812 118.469 35.1016C118.688 35.4141 118.863 35.7773 118.996 36.1914C119.129 36.6055 119.195 37.0742 119.195 37.5977V46ZM108.203 46H105.156V27.9766H108.203V46ZM135.766 41.7227C135.766 42.2461 135.699 42.7188 135.566 43.1406C135.434 43.5547 135.258 43.9219 135.039 44.2422C134.82 44.5547 134.566 44.8242 134.277 45.0508C133.988 45.2695 133.684 45.4492 133.363 45.5898C133.051 45.7305 132.73 45.8359 132.402 45.9062C132.082 45.9688 131.777 46 131.488 46H125.992C125.57 46 125.109 45.9258 124.609 45.7773C124.109 45.6289 123.645 45.3867 123.215 45.0508C122.793 44.707 122.438 44.2656 122.148 43.7266C121.867 43.1797 121.727 42.5117 121.727 41.7227V37.5977C121.727 36.8164 121.867 36.1562 122.148 35.6172C122.438 35.0703 122.793 34.6289 123.215 34.293C123.645 33.9492 124.109 33.7031 124.609 33.5547C125.109 33.4062 125.57 33.332 125.992 33.332H131.488C132.27 33.332 132.934 33.4727 133.48 33.7539C134.027 34.0352 134.469 34.3906 134.805 34.8203C135.141 35.2422 135.383 35.7031 135.531 36.2031C135.688 36.7031 135.766 37.168 135.766 37.5977V41.7227ZM132.719 37.6211C132.719 37.1992 132.613 36.8867 132.402 36.6836C132.191 36.4805 131.887 36.3789 131.488 36.3789H126.016C125.609 36.3789 125.301 36.4844 125.09 36.6953C124.879 36.8984 124.773 37.1992 124.773 37.5977V41.7227C124.773 42.1211 124.879 42.4258 125.09 42.6367C125.301 42.8477 125.609 42.9531 126.016 42.9531H131.488C131.902 42.9531 132.211 42.8477 132.414 42.6367C132.617 42.4258 132.719 42.1211 132.719 41.7227V37.6211ZM152.336 41.7227C152.336 42.2461 152.27 42.7188 152.137 43.1406C152.004 43.5547 151.828 43.9219 151.609 44.2422C151.391 44.5547 151.137 44.8242 150.848 45.0508C150.559 45.2695 150.254 45.4492 149.934 45.5898C149.621 45.7305 149.305 45.8359 148.984 45.9062C148.664 45.9688 148.359 46 148.07 46H142.574V42.9531H148.07C148.477 42.9531 148.781 42.8477 148.984 42.6367C149.188 42.4258 149.289 42.1211 149.289 41.7227V37.6211C149.289 37.1992 149.184 36.8867 148.973 36.6836C148.77 36.4805 148.469 36.3789 148.07 36.3789H142.598C142.184 36.3789 141.871 36.4844 141.66 36.6953C141.449 36.8984 141.344 37.1992 141.344 37.5977V49.9609H138.297V37.5977C138.297 37.0742 138.363 36.6055 138.496 36.1914C138.629 35.7773 138.805 35.4141 139.023 35.1016C139.25 34.7812 139.508 34.5117 139.797 34.293C140.086 34.0664 140.387 33.8828 140.699 33.7422C141.02 33.6016 141.34 33.5 141.66 33.4375C141.988 33.3672 142.293 33.332 142.574 33.332H148.07C148.594 33.332 149.062 33.3984 149.477 33.5312C149.891 33.6641 150.254 33.8398 150.566 34.0586C150.887 34.2773 151.156 34.5312 151.375 34.8203C151.602 35.1094 151.785 35.4141 151.926 35.7344C152.066 36.0469 152.168 36.3633 152.23 36.6836C152.301 37.0039 152.336 37.3086 152.336 37.5977V41.7227Z"/>
</mask>
<path d="M102.918 41.0547C102.918 41.6562 102.84 42.1992 102.684 42.6836C102.535 43.1602 102.336 43.582 102.086 43.9492C101.836 44.3164 101.543 44.6289 101.207 44.8867C100.871 45.1445 100.523 45.3555 100.164 45.5195C99.8047 45.6836 99.4375 45.8047 99.0625 45.8828C98.6953 45.9609 98.3477 46 98.0195 46H86.2656V42.9531H98.0195C98.6055 42.9531 99.0586 42.7812 99.3789 42.4375C99.707 42.0938 99.8711 41.6328 99.8711 41.0547C99.8711 40.7734 99.8281 40.5156 99.7422 40.2812C99.6562 40.0469 99.5312 39.8438 99.3672 39.6719C99.2109 39.5 99.0156 39.3672 98.7812 39.2734C98.5547 39.1797 98.3008 39.1328 98.0195 39.1328H91.0117C90.5195 39.1328 89.9883 39.0469 89.418 38.875C88.8477 38.6953 88.3164 38.4102 87.8242 38.0195C87.3398 37.6289 86.9336 37.1172 86.6055 36.4844C86.2852 35.8516 86.125 35.0781 86.125 34.1641C86.125 33.25 86.2852 32.4805 86.6055 31.8555C86.9336 31.2227 87.3398 30.7109 87.8242 30.3203C88.3164 29.9219 88.8477 29.6367 89.418 29.4648C89.9883 29.2852 90.5195 29.1953 91.0117 29.1953H101.383V32.2422H91.0117C90.4336 32.2422 89.9805 32.418 89.6523 32.7695C89.332 33.1211 89.1719 33.5859 89.1719 34.1641C89.1719 34.75 89.332 35.2148 89.6523 35.5586C89.9805 35.8945 90.4336 36.0625 91.0117 36.0625H98.0195H98.043C98.3711 36.0703 98.7188 36.1172 99.0859 36.2031C99.4531 36.2812 99.8164 36.4062 100.176 36.5781C100.543 36.75 100.891 36.9688 101.219 37.2344C101.547 37.4922 101.836 37.8047 102.086 38.1719C102.344 38.5391 102.547 38.9609 102.695 39.4375C102.844 39.9141 102.918 40.4531 102.918 41.0547ZM119.195 46H116.148V37.5977C116.148 37.1992 116.047 36.8984 115.844 36.6953C115.641 36.4844 115.336 36.3789 114.93 36.3789H109.434V33.332H114.93C115.219 33.332 115.523 33.3672 115.844 33.4375C116.164 33.5 116.48 33.6016 116.793 33.7422C117.113 33.8828 117.418 34.0664 117.707 34.293C117.996 34.5117 118.25 34.7812 118.469 35.1016C118.688 35.4141 118.863 35.7773 118.996 36.1914C119.129 36.6055 119.195 37.0742 119.195 37.5977V46ZM108.203 46H105.156V27.9766H108.203V46ZM135.766 41.7227C135.766 42.2461 135.699 42.7188 135.566 43.1406C135.434 43.5547 135.258 43.9219 135.039 44.2422C134.82 44.5547 134.566 44.8242 134.277 45.0508C133.988 45.2695 133.684 45.4492 133.363 45.5898C133.051 45.7305 132.73 45.8359 132.402 45.9062C132.082 45.9688 131.777 46 131.488 46H125.992C125.57 46 125.109 45.9258 124.609 45.7773C124.109 45.6289 123.645 45.3867 123.215 45.0508C122.793 44.707 122.438 44.2656 122.148 43.7266C121.867 43.1797 121.727 42.5117 121.727 41.7227V37.5977C121.727 36.8164 121.867 36.1562 122.148 35.6172C122.438 35.0703 122.793 34.6289 123.215 34.293C123.645 33.9492 124.109 33.7031 124.609 33.5547C125.109 33.4062 125.57 33.332 125.992 33.332H131.488C132.27 33.332 132.934 33.4727 133.48 33.7539C134.027 34.0352 134.469 34.3906 134.805 34.8203C135.141 35.2422 135.383 35.7031 135.531 36.2031C135.688 36.7031 135.766 37.168 135.766 37.5977V41.7227ZM132.719 37.6211C132.719 37.1992 132.613 36.8867 132.402 36.6836C132.191 36.4805 131.887 36.3789 131.488 36.3789H126.016C125.609 36.3789 125.301 36.4844 125.09 36.6953C124.879 36.8984 124.773 37.1992 124.773 37.5977V41.7227C124.773 42.1211 124.879 42.4258 125.09 42.6367C125.301 42.8477 125.609 42.9531 126.016 42.9531H131.488C131.902 42.9531 132.211 42.8477 132.414 42.6367C132.617 42.4258 132.719 42.1211 132.719 41.7227V37.6211ZM152.336 41.7227C152.336 42.2461 152.27 42.7188 152.137 43.1406C152.004 43.5547 151.828 43.9219 151.609 44.2422C151.391 44.5547 151.137 44.8242 150.848 45.0508C150.559 45.2695 150.254 45.4492 149.934 45.5898C149.621 45.7305 149.305 45.8359 148.984 45.9062C148.664 45.9688 148.359 46 148.07 46H142.574V42.9531H148.07C148.477 42.9531 148.781 42.8477 148.984 42.6367C149.188 42.4258 149.289 42.1211 149.289 41.7227V37.6211C149.289 37.1992 149.184 36.8867 148.973 36.6836C148.77 36.4805 148.469 36.3789 148.07 36.3789H142.598C142.184 36.3789 141.871 36.4844 141.66 36.6953C141.449 36.8984 141.344 37.1992 141.344 37.5977V49.9609H138.297V37.5977C138.297 37.0742 138.363 36.6055 138.496 36.1914C138.629 35.7773 138.805 35.4141 139.023 35.1016C139.25 34.7812 139.508 34.5117 139.797 34.293C140.086 34.0664 140.387 33.8828 140.699 33.7422C141.02 33.6016 141.34 33.5 141.66 33.4375C141.988 33.3672 142.293 33.332 142.574 33.332H148.07C148.594 33.332 149.062 33.3984 149.477 33.5312C149.891 33.6641 150.254 33.8398 150.566 34.0586C150.887 34.2773 151.156 34.5312 151.375 34.8203C151.602 35.1094 151.785 35.4141 151.926 35.7344C152.066 36.0469 152.168 36.3633 152.23 36.6836C152.301 37.0039 152.336 37.3086 152.336 37.5977V41.7227Z" fill="#686D76"/>
<path d="M102.684 42.6836L102.208 42.5301L102.206 42.5349L102.684 42.6836ZM99.0625 45.8828L98.9605 45.3933L98.9584 45.3938L99.0625 45.8828ZM86.2656 46H85.7656V46.5H86.2656V46ZM86.2656 42.9531V42.4531H85.7656V42.9531H86.2656ZM99.3789 42.4375L99.0172 42.0922L99.0131 42.0966L99.3789 42.4375ZM99.3672 39.6719L98.9971 40.0083L99.0055 40.0171L99.3672 39.6719ZM98.7812 39.2734L98.5901 39.7355L98.5956 39.7377L98.7812 39.2734ZM89.418 38.875L89.2677 39.3519L89.2737 39.3537L89.418 38.875ZM87.8242 38.0195L87.5103 38.4088L87.5134 38.4112L87.8242 38.0195ZM86.6055 36.4844L86.1593 36.7102L86.1616 36.7145L86.6055 36.4844ZM86.6055 31.8555L86.1616 31.6253L86.1605 31.6274L86.6055 31.8555ZM87.8242 30.3203L88.1381 30.7095L88.1388 30.7089L87.8242 30.3203ZM89.418 29.4648L89.5623 29.9436L89.5682 29.9417L89.418 29.4648ZM101.383 29.1953H101.883V28.6953H101.383V29.1953ZM101.383 32.2422V32.7422H101.883V32.2422H101.383ZM89.6523 32.7695L89.2868 32.4283L89.2827 32.4328L89.6523 32.7695ZM89.6523 35.5586L89.2864 35.8996L89.2947 35.908L89.6523 35.5586ZM98.043 36.0625L98.0549 35.5625H98.043V36.0625ZM99.0859 36.2031L98.972 36.6901L98.9819 36.6922L99.0859 36.2031ZM100.176 36.5781L99.96 37.0292L99.9638 37.031L100.176 36.5781ZM101.219 37.2344L100.904 37.623L100.91 37.6275L101.219 37.2344ZM102.086 38.1719L101.673 38.4533L101.677 38.4592L102.086 38.1719ZM102.418 41.0547C102.418 41.6134 102.345 42.1034 102.208 42.5301L103.159 42.8371C103.334 42.2951 103.418 41.6991 103.418 41.0547H102.418ZM102.206 42.5349C102.071 42.9701 101.892 43.3462 101.673 43.6678L102.499 44.2306C102.78 43.8179 103 43.3503 103.161 42.8323L102.206 42.5349ZM101.673 43.6678C101.451 43.9932 101.194 44.2662 100.903 44.4901L101.511 45.2834C101.892 44.9916 102.221 44.6396 102.499 44.2306L101.673 43.6678ZM100.903 44.4901C100.595 44.7265 100.279 44.9174 99.9564 45.0647L100.372 45.9744C100.768 45.7936 101.148 45.5625 101.511 45.2834L100.903 44.4901ZM99.9564 45.0647C99.6298 45.2138 99.298 45.323 98.9605 45.3933L99.1645 46.3723C99.577 46.2864 99.9796 46.1534 100.372 45.9744L99.9564 45.0647ZM98.9584 45.3938C98.6207 45.4656 98.3081 45.5 98.0195 45.5V46.5C98.3872 46.5 98.77 46.4562 99.1666 46.3719L98.9584 45.3938ZM98.0195 45.5H86.2656V46.5H98.0195V45.5ZM86.7656 46V42.9531H85.7656V46H86.7656ZM86.2656 43.4531H98.0195V42.4531H86.2656V43.4531ZM98.0195 43.4531C98.7076 43.4531 99.3074 43.2476 99.7447 42.7784L99.0131 42.0966C98.8097 42.3149 98.5034 42.4531 98.0195 42.4531V43.4531ZM99.7406 42.7827C100.176 42.3266 100.371 41.7319 100.371 41.0547H99.3711C99.3711 41.5337 99.2381 41.8609 99.0172 42.0923L99.7406 42.7827ZM100.371 41.0547C100.371 40.7221 100.32 40.4052 100.212 40.1091L99.2727 40.4534C99.3361 40.6261 99.3711 40.8248 99.3711 41.0547H100.371ZM100.212 40.1091C100.103 39.8136 99.9427 39.5507 99.7289 39.3266L99.0055 40.0171C99.1198 40.1368 99.2092 40.2802 99.2727 40.4534L100.212 40.1091ZM99.7372 39.3355C99.5257 39.1029 99.2654 38.9286 98.9669 38.8092L98.5956 39.7377C98.7658 39.8058 98.8962 39.8971 98.9972 40.0082L99.7372 39.3355ZM98.9724 38.8114C98.677 38.6892 98.3568 38.6328 98.0195 38.6328V39.6328C98.2447 39.6328 98.4324 39.6702 98.5901 39.7354L98.9724 38.8114ZM98.0195 38.6328H91.0117V39.6328H98.0195V38.6328ZM91.0117 38.6328C90.5774 38.6328 90.0952 38.5569 89.5622 38.3963L89.2737 39.3537C89.8813 39.5369 90.4617 39.6328 91.0117 39.6328V38.6328ZM89.5682 38.3981C89.0591 38.2377 88.5818 37.9825 88.135 37.6279L87.5134 38.4112C88.051 38.8378 88.6362 39.1529 89.2677 39.3519L89.5682 38.3981ZM88.1381 37.6303C87.7149 37.289 87.3502 36.8345 87.0493 36.2542L86.1616 36.7145C86.517 37.3999 86.9648 37.9688 87.5103 38.4087L88.1381 37.6303ZM87.0516 36.2586C86.7754 35.713 86.625 35.0216 86.625 34.1641H85.625C85.625 35.1347 85.7949 35.9901 86.1594 36.7102L87.0516 36.2586ZM86.625 34.1641C86.625 33.3062 86.7755 32.6199 87.0504 32.0835L86.1605 31.6274C85.7948 32.341 85.625 33.1938 85.625 34.1641H86.625ZM87.0493 32.0856C87.3502 31.5054 87.7149 31.0508 88.1381 30.7095L87.5103 29.9311C86.9648 30.3711 86.517 30.94 86.1616 31.6253L87.0493 32.0856ZM88.1388 30.7089C88.5838 30.3487 89.0579 30.0956 89.5622 29.9436L89.2737 28.9861C88.6375 29.1779 88.049 29.4951 87.5096 29.9317L88.1388 30.7089ZM89.5682 29.9417C90.1 29.7742 90.5801 29.6953 91.0117 29.6953V28.6953C90.459 28.6953 89.8766 28.7961 89.2677 28.988L89.5682 29.9417ZM91.0117 29.6953H101.383V28.6953H91.0117V29.6953ZM100.883 29.1953V32.2422H101.883V29.1953H100.883ZM101.383 31.7422H91.0117V32.7422H101.383V31.7422ZM91.0117 31.7422C90.3253 31.7422 89.7284 31.9553 89.2868 32.4284L90.0179 33.1107C90.2326 32.8807 90.5419 32.7422 91.0117 32.7422V31.7422ZM89.2827 32.4328C88.8613 32.8954 88.6719 33.4896 88.6719 34.1641H89.6719C89.6719 33.6823 89.8028 33.3468 90.0219 33.1063L89.2827 32.4328ZM88.6719 34.1641C88.6719 34.8438 88.86 35.4417 89.2865 35.8995L90.0181 35.2177C89.804 34.988 89.6719 34.6562 89.6719 34.1641H88.6719ZM89.2947 35.908C89.7378 36.3616 90.3321 36.5625 91.0117 36.5625V35.5625C90.5351 35.5625 90.2232 35.4275 90.01 35.2092L89.2947 35.908ZM91.0117 36.5625H98.0195V35.5625H91.0117V36.5625ZM98.0195 36.5625H98.043V35.5625H98.0195V36.5625ZM98.0311 36.5624C98.3202 36.5692 98.6334 36.6107 98.972 36.69L99.1999 35.7163C98.8041 35.6236 98.422 35.5714 98.0549 35.5626L98.0311 36.5624ZM98.9819 36.6922C99.3082 36.7616 99.6341 36.8733 99.9601 37.0292L100.392 36.1271C99.9987 35.9392 99.5981 35.8009 99.19 35.7141L98.9819 36.6922ZM99.9638 37.031C100.293 37.185 100.606 37.3818 100.904 37.623L101.533 36.8458C101.175 36.5557 100.793 36.315 100.388 36.1253L99.9638 37.031ZM100.91 37.6275C101.195 37.8517 101.45 38.1257 101.673 38.4533L102.499 37.8905C102.222 37.4836 101.899 37.1327 101.528 36.8412L100.91 37.6275ZM101.677 38.4592C101.902 38.7795 102.083 39.1536 102.218 39.5862L103.173 39.2888C103.011 38.7683 102.786 38.2986 102.495 37.8846L101.677 38.4592ZM102.218 39.5862C102.349 40.0059 102.418 40.4936 102.418 41.0547H103.418C103.418 40.4127 103.339 39.8222 103.173 39.2888L102.218 39.5862ZM119.195 46V46.5H119.695V46H119.195ZM116.148 46H115.648V46.5H116.148V46ZM115.844 36.6953L115.484 37.0422L115.49 37.0489L115.844 36.6953ZM109.434 36.3789H108.934V36.8789H109.434V36.3789ZM109.434 33.332V32.832H108.934V33.332H109.434ZM115.844 33.4375L115.737 33.926L115.748 33.9282L115.844 33.4375ZM116.793 33.7422L116.588 34.1982L116.592 34.2L116.793 33.7422ZM117.707 34.293L117.399 34.6866L117.405 34.6917L117.707 34.293ZM118.469 35.1016L118.056 35.3836L118.059 35.3883L118.469 35.1016ZM108.203 46V46.5H108.703V46H108.203ZM105.156 46H104.656V46.5H105.156V46ZM105.156 27.9766V27.4766H104.656V27.9766H105.156ZM108.203 27.9766H108.703V27.4766H108.203V27.9766ZM119.195 45.5H116.148V46.5H119.195V45.5ZM116.648 46V37.5977H115.648V46H116.648ZM116.648 37.5977C116.648 37.1189 116.526 36.6701 116.197 36.3418L115.49 37.0489C115.568 37.1268 115.648 37.2796 115.648 37.5977H116.648ZM116.204 36.3485C115.875 36.0067 115.418 35.8789 114.93 35.8789V36.8789C115.254 36.8789 115.407 36.9621 115.484 37.0421L116.204 36.3485ZM114.93 35.8789H109.434V36.8789H114.93V35.8789ZM109.934 36.3789V33.332H108.934V36.3789H109.934ZM109.434 33.832H114.93V32.832H109.434V33.832ZM114.93 33.832C115.178 33.832 115.447 33.8623 115.737 33.9259L115.951 32.9491C115.6 32.8721 115.259 32.832 114.93 32.832V33.832ZM115.748 33.9282C116.029 33.983 116.309 34.0725 116.588 34.1981L116.998 33.2862C116.652 33.1306 116.299 33.017 115.94 32.9468L115.748 33.9282ZM116.592 34.2C116.872 34.323 117.141 34.4845 117.399 34.6865L118.015 33.8994C117.695 33.6483 117.355 33.4427 116.994 33.2844L116.592 34.2ZM117.405 34.6917C117.648 34.8756 117.865 35.1048 118.056 35.3835L118.882 34.8196C118.635 34.4577 118.344 34.1479 118.009 33.8943L117.405 34.6917ZM118.059 35.3883C118.245 35.6544 118.4 35.9713 118.52 36.3441L119.472 36.0387C119.326 35.5834 119.13 35.1737 118.878 34.8148L118.059 35.3883ZM118.52 36.3441C118.634 36.7 118.695 37.1158 118.695 37.5977H119.695C119.695 37.0326 119.624 36.511 119.472 36.0387L118.52 36.3441ZM118.695 37.5977V46H119.695V37.5977H118.695ZM108.203 45.5H105.156V46.5H108.203V45.5ZM105.656 46V27.9766H104.656V46H105.656ZM105.156 28.4766H108.203V27.4766H105.156V28.4766ZM107.703 27.9766V46H108.703V27.9766H107.703ZM135.566 43.1406L136.043 43.2933L136.043 43.2908L135.566 43.1406ZM135.039 44.2422L135.449 44.5289L135.452 44.5242L135.039 44.2422ZM134.277 45.0508L134.579 45.4495L134.586 45.4443L134.277 45.0508ZM133.363 45.5898L133.162 45.132L133.158 45.1339L133.363 45.5898ZM132.402 45.9062L132.498 46.3971L132.507 46.3952L132.402 45.9062ZM123.215 45.0508L122.899 45.4385L122.907 45.4447L123.215 45.0508ZM122.148 43.7266L121.704 43.9553L121.708 43.9629L122.148 43.7266ZM122.148 35.6172L121.706 35.3835L121.705 35.3859L122.148 35.6172ZM123.215 34.293L123.526 34.6841L123.527 34.6834L123.215 34.293ZM134.805 34.8203L134.411 35.1283L134.414 35.1318L134.805 34.8203ZM135.531 36.2031L135.052 36.3454L135.054 36.3523L135.531 36.2031ZM125.09 36.6953L125.437 37.0555L125.443 37.0489L125.09 36.6953ZM135.266 41.7227C135.266 42.2042 135.204 42.6251 135.089 42.9905L136.043 43.2908C136.194 42.8124 136.266 42.2879 136.266 41.7227H135.266ZM135.09 42.9879C134.97 43.3615 134.815 43.6842 134.626 43.9602L135.452 44.5242C135.701 44.1596 135.897 43.7478 136.043 43.2933L135.09 42.9879ZM134.629 43.9555C134.438 44.2291 134.218 44.4623 133.969 44.6573L134.586 45.4443C134.915 45.1862 135.203 44.8802 135.449 44.5289L134.629 43.9555ZM133.976 44.6521C133.717 44.8481 133.446 45.0077 133.162 45.132L133.564 46.0477C133.922 45.8908 134.26 45.691 134.579 45.4495L133.976 44.6521ZM133.158 45.1339C132.877 45.2603 132.59 45.3546 132.298 45.4173L132.507 46.3952C132.871 46.3173 133.224 46.2006 133.568 46.0458L133.158 45.1339ZM132.307 45.4155C132.014 45.4726 131.741 45.5 131.488 45.5V46.5C131.813 46.5 132.15 46.4649 132.498 46.397L132.307 45.4155ZM131.488 45.5H125.992V46.5H131.488V45.5ZM125.992 45.5C125.628 45.5 125.216 45.4358 124.752 45.298L124.467 46.2567C125.003 46.4157 125.512 46.5 125.992 46.5V45.5ZM124.752 45.298C124.314 45.1682 123.905 44.956 123.523 44.6569L122.907 45.4447C123.384 45.8174 123.904 46.0896 124.467 46.2567L124.752 45.298ZM123.531 44.6632C123.166 44.366 122.851 43.9783 122.589 43.4903L121.708 43.9629C122.024 44.5529 122.42 45.0481 122.899 45.4384L123.531 44.6632ZM122.593 43.4979C122.357 43.0389 122.227 42.454 122.227 41.7227H121.227C121.227 42.5694 121.377 43.3205 121.704 43.9552L122.593 43.4979ZM122.227 41.7227V37.5977H121.227V41.7227H122.227ZM122.227 37.5977C122.227 36.8747 122.357 36.2987 122.592 35.8485L121.705 35.3859C121.378 36.0138 121.227 36.7582 121.227 37.5977H122.227ZM122.59 35.8508C122.852 35.356 123.166 34.9712 123.526 34.6841L122.903 33.9018C122.42 34.2866 122.023 34.7846 121.706 35.3835L122.59 35.8508ZM123.527 34.6834C123.909 34.3777 124.317 34.1631 124.752 34.034L124.467 33.0754C123.902 33.2432 123.38 33.5207 122.902 33.9025L123.527 34.6834ZM124.752 34.034C125.216 33.8962 125.628 33.832 125.992 33.832V32.832C125.512 32.832 125.003 32.9163 124.467 33.0754L124.752 34.034ZM125.992 33.832H131.488V32.832H125.992V33.832ZM131.488 33.832C132.211 33.832 132.792 33.9622 133.252 34.1986L133.709 33.3093C133.075 32.9831 132.328 32.832 131.488 32.832V33.832ZM133.252 34.1986C133.743 34.451 134.125 34.7624 134.411 35.1283L135.199 34.5124C134.813 34.0188 134.312 33.6194 133.709 33.3093L133.252 34.1986ZM134.414 35.1318C134.711 35.5052 134.922 35.909 135.052 36.3454L136.011 36.0608C135.843 35.4972 135.57 34.9792 135.196 34.5088L134.414 35.1318ZM135.054 36.3523C135.198 36.8142 135.266 37.2282 135.266 37.5977H136.266C136.266 37.1077 136.177 36.5921 136.008 36.054L135.054 36.3523ZM135.266 37.5977V41.7227H136.266V37.5977H135.266ZM133.219 37.6211C133.219 37.1238 133.094 36.6558 132.749 36.3234L132.056 37.0438C132.132 37.1176 132.219 37.2746 132.219 37.6211H133.219ZM132.749 36.3234C132.416 36.0023 131.968 35.8789 131.488 35.8789V36.8789C131.805 36.8789 131.967 36.9587 132.056 37.0438L132.749 36.3234ZM131.488 35.8789H126.016V36.8789H131.488V35.8789ZM126.016 35.8789C125.526 35.8789 125.071 36.0072 124.736 36.3418L125.443 37.0489C125.531 36.9615 125.693 36.8789 126.016 36.8789V35.8789ZM124.743 36.3352C124.403 36.6626 124.273 37.1139 124.273 37.5977H125.273C125.273 37.2845 125.355 37.1343 125.437 37.0555L124.743 36.3352ZM124.273 37.5977V41.7227H125.273V37.5977H124.273ZM124.273 41.7227C124.273 42.2077 124.403 42.6574 124.736 42.9903L125.443 42.2832C125.354 42.1941 125.273 42.0344 125.273 41.7227H124.273ZM124.736 42.9903C125.071 43.3248 125.526 43.4531 126.016 43.4531V42.4531C125.693 42.4531 125.531 42.3705 125.443 42.2832L124.736 42.9903ZM126.016 43.4531H131.488V42.4531H126.016V43.4531ZM131.488 43.4531C131.981 43.4531 132.443 43.3271 132.774 42.9835L132.054 42.2899C131.978 42.3682 131.824 42.4531 131.488 42.4531V43.4531ZM132.774 42.9835C133.095 42.65 133.219 42.2029 133.219 41.7227H132.219C132.219 42.0393 132.139 42.2015 132.054 42.2899L132.774 42.9835ZM133.219 41.7227V37.6211H132.219V41.7227H133.219ZM152.137 43.1406L152.613 43.2933L152.614 43.2908L152.137 43.1406ZM151.609 44.2422L152.019 44.5289L152.022 44.5242L151.609 44.2422ZM150.848 45.0508L151.149 45.4495L151.156 45.4443L150.848 45.0508ZM149.934 45.5898L149.733 45.132L149.728 45.1339L149.934 45.5898ZM148.984 45.9062L149.08 46.3971L149.092 46.3946L148.984 45.9062ZM142.574 46H142.074V46.5H142.574V46ZM142.574 42.9531V42.4531H142.074V42.9531H142.574ZM148.973 36.6836L148.619 37.0372L148.626 37.0438L148.973 36.6836ZM141.66 36.6953L142.007 37.0555L142.014 37.0489L141.66 36.6953ZM141.344 49.9609V50.4609H141.844V49.9609H141.344ZM138.297 49.9609H137.797V50.4609H138.297V49.9609ZM139.023 35.1016L138.615 34.8128L138.614 34.8148L139.023 35.1016ZM139.797 34.293L140.099 34.6917L140.105 34.6865L139.797 34.293ZM140.699 33.7422L140.498 33.2843L140.494 33.2862L140.699 33.7422ZM141.66 33.4375L141.756 33.9283L141.765 33.9264L141.66 33.4375ZM150.566 34.0586L150.28 34.4682L150.284 34.4715L150.566 34.0586ZM151.375 34.8203L150.976 35.1221L150.981 35.1288L151.375 34.8203ZM151.926 35.7344L151.468 35.9354L151.47 35.9396L151.926 35.7344ZM152.23 36.6836L151.74 36.7794L151.742 36.7908L152.23 36.6836ZM151.836 41.7227C151.836 42.2042 151.775 42.6251 151.66 42.9905L152.614 43.2908C152.764 42.8124 152.836 42.2879 152.836 41.7227H151.836ZM151.661 42.9879C151.541 43.3615 151.385 43.6842 151.196 43.9602L152.022 44.5242C152.271 44.1596 152.467 43.7478 152.613 43.2933L151.661 42.9879ZM151.2 43.9555C151.008 44.2291 150.788 44.4623 150.539 44.6573L151.156 45.4443C151.485 45.1862 151.773 44.8802 152.019 44.5289L151.2 43.9555ZM150.546 44.6521C150.287 44.8481 150.016 45.0077 149.733 45.132L150.135 46.0477C150.492 45.8908 150.83 45.691 151.149 45.4495L150.546 44.6521ZM149.728 45.1339C149.446 45.261 149.162 45.3553 148.877 45.4179L149.092 46.3946C149.447 46.3166 149.796 46.1999 150.139 46.0458L149.728 45.1339ZM148.889 45.4155C148.596 45.4726 148.323 45.5 148.07 45.5V46.5C148.395 46.5 148.732 46.4649 149.08 46.397L148.889 45.4155ZM148.07 45.5H142.574V46.5H148.07V45.5ZM143.074 46V42.9531H142.074V46H143.074ZM142.574 43.4531H148.07V42.4531H142.574V43.4531ZM148.07 43.4531C148.559 43.4531 149.015 43.3254 149.345 42.9835L148.624 42.2899C148.547 42.3699 148.395 42.4531 148.07 42.4531V43.4531ZM149.345 42.9835C149.666 42.65 149.789 42.2029 149.789 41.7227H148.789C148.789 42.0393 148.709 42.2015 148.624 42.2899L149.345 42.9835ZM149.789 41.7227V37.6211H148.789V41.7227H149.789ZM149.789 37.6211C149.789 37.1238 149.665 36.6558 149.319 36.3234L148.626 37.0438C148.703 37.1176 148.789 37.2746 148.789 37.6211H149.789ZM149.326 36.33C148.998 36.0017 148.549 35.8789 148.07 35.8789V36.8789C148.388 36.8789 148.541 36.9592 148.619 37.0371L149.326 36.33ZM148.07 35.8789H142.598V36.8789H148.07V35.8789ZM142.598 35.8789C142.103 35.8789 141.643 36.0056 141.307 36.3418L142.014 37.0489C142.099 36.9632 142.264 36.8789 142.598 36.8789V35.8789ZM141.313 36.3352C140.973 36.6626 140.844 37.1139 140.844 37.5977H141.844C141.844 37.2845 141.925 37.1343 142.007 37.0555L141.313 36.3352ZM140.844 37.5977V49.9609H141.844V37.5977H140.844ZM141.344 49.4609H138.297V50.4609H141.344V49.4609ZM138.797 49.9609V37.5977H137.797V49.9609H138.797ZM138.797 37.5977C138.797 37.1158 138.858 36.7 138.972 36.3441L138.02 36.0387C137.868 36.511 137.797 37.0326 137.797 37.5977H138.797ZM138.972 36.3441C139.092 35.9713 139.247 35.6544 139.433 35.3883L138.614 34.8148C138.363 35.1737 138.166 35.5834 138.02 36.0387L138.972 36.3441ZM139.432 35.3903C139.631 35.1084 139.854 34.877 140.099 34.6917L139.495 33.8943C139.162 34.1464 138.869 34.4541 138.615 34.8128L139.432 35.3903ZM140.105 34.6865C140.365 34.4831 140.631 34.3211 140.904 34.1981L140.494 33.2862C140.142 33.4446 139.807 33.6497 139.488 33.8994L140.105 34.6865ZM140.9 34.2C141.189 34.0731 141.474 33.9832 141.756 33.9282L141.564 32.9468C141.205 33.0168 140.85 33.13 140.498 33.2844L140.9 34.2ZM141.765 33.9264C142.065 33.8621 142.334 33.832 142.574 33.832V32.832C142.252 32.832 141.912 32.8723 141.555 32.9486L141.765 33.9264ZM142.574 33.832H148.07V32.832H142.574V33.832ZM148.07 33.832C148.552 33.832 148.968 33.8932 149.324 34.0074L149.629 33.0551C149.157 32.9037 148.635 32.832 148.07 32.832V33.832ZM149.324 34.0074C149.697 34.127 150.014 34.2819 150.28 34.4682L150.853 33.649C150.494 33.3978 150.085 33.2012 149.629 33.0551L149.324 34.0074ZM150.284 34.4715C150.563 34.6619 150.792 34.879 150.976 35.122L151.774 34.5186C151.52 34.1835 151.21 33.8928 150.848 33.6457L150.284 34.4715ZM150.981 35.1288C151.183 35.3865 151.345 35.6553 151.468 35.9354L152.384 35.5334C152.225 35.1728 152.02 34.8323 151.769 34.5119L150.981 35.1288ZM151.47 35.9396C151.595 36.2188 151.685 36.4986 151.74 36.7793L152.721 36.5878C152.651 36.228 152.537 35.875 152.382 35.5292L151.47 35.9396ZM151.742 36.7908C151.806 37.0805 151.836 37.3491 151.836 37.5977H152.836C152.836 37.2681 152.796 36.9273 152.719 36.5764L151.742 36.7908ZM151.836 37.5977V41.7227H152.836V37.5977H151.836Z" fill="#686D76" mask="url(#path-3-outside-1_2004_20)"/>
</svg>
